<?xml version="1.0" encoding="utf-8"?>
<!-- Generator: Adobe Illustrator 24.0.2, SVG Export Plug-In . SVG Version: 6.00 Build 0)  -->
<svg version="1.1" id="Layer_1" xmlns="http://www.w3.org/2000/svg" xmlns:xlink="http://www.w3.org/1999/xlink" x="0px" y="0px"
	 viewBox="0 0 322.8 368.5" style="enable-background:new 0 0 322.8 368.5;" xml:space="preserve">
<style type="text/css">
	.st0{fill-rule:evenodd;clip-rule:evenodd;fill:#029835;}
	.st1{fill-rule:evenodd;clip-rule:evenodd;fill:#FFFFFF;}
	.st2{fill:#FFFFFF;}
	.st3{fill-rule:evenodd;clip-rule:evenodd;fill:#00AE41;}
</style>
<g id="Layer_x0020_1">
	<path class="st0" d="M161.4,97.1c35.1,0,63.6,28.4,63.6,63.6s-28.4,63.6-63.6,63.6s-63.6-28.4-63.6-63.5S126.3,97.1,161.4,97.1z"/>
	<path class="st1" d="M135.4,136.7h53.2v39.2h-53.2V136.7z M171.1,169.6c-0.6,0.3-1,0.1-1.6-0.4l-8.3-8.2l-8.3,8.3
		c-0.5,0.5-1,0.7-1.6,0.3c-0.1,0-1-1-1.1-1.1c-0.3-0.6-0.1-1,0.4-1.6l8.3-8.3l-2.9-2.8c-2.9,1.9-6,0.2-8-2.2c-0.8-1.1-2-3.3-2.4-5.3
		c-0.2-1.2-0.2-2.3,0-3.2c0.4-1.3,0.7-1.6,2-2c0.9-0.2,2-0.3,3.1,0c2.1,0.4,4.3,1.5,5.3,2.4c2.5,2,4.2,5.1,2.2,8l2.8,2.9l2.7-2.7
		c0-1.3,0-2.7,0.1-3.3c0.1-0.5,0.4-0.8,1.2-1.5l7.6-6.7c1.3-1.4,2.3-0.4,0.8,0.9l-5,4.7c-0.6,0.5-0.9,1-0.3,1.7
		c0.6,0.6,1,0.3,1.6-0.2l5.2-5.2c0.4-0.5,0.9-0.5,1.2-0.2c0.3,0.2,0.2,0.7-0.2,1.2l-5.2,5.2c-0.5,0.5-0.9,0.9-0.2,1.6
		c0.6,0.6,1.1,0.3,1.7-0.3l4.7-5c1.3-1.4,2.3-0.5,0.9,0.8l-6.6,7.6c-0.7,0.7-1,1-1.5,1.2c-0.6,0.1-2,0.2-3.3,0.1l-2.7,2.7l8.2,8.3
		c0.5,0.5,0.7,1,0.3,1.6c0,0.1-1,1-1.1,1.1L171.1,169.6z M137.7,135.3c-0.4,0-0.5-0.5,0-0.9l13.7-12.7H162h10.7l13.7,12.8
		c0.5,0.4,0.4,0.9,0,0.9H162L137.7,135.3L137.7,135.3z M137.5,127.6l0.1,5.6l10.4-9.7h-6.1C139.2,123.5,137.3,124.9,137.5,127.6z
		 M186.5,127.6l-0.1,5.6l-10.4-9.7h6.1C184.8,123.5,186.7,124.9,186.5,127.6z M156.6,126.1h3.7h0.9h6.1c0.6,0,1,0.5,1,1v1.6
		c0,0,0,0.1,0,0.2h-6.1h-2.9h-3.7c0,0,0-0.1,0-0.2v-1.6C155.6,126.6,156,126.1,156.6,126.1L156.6,126.1z"/>
	<path class="st2" d="M130.3,193.6h4h0.2v0.2v6.2v0.2l-0.2,0c-0.1,0-0.3,0.1-0.4,0.1s-0.3,0.1-0.5,0.1l0,0c-0.4,0.1-0.7,0.2-1.2,0.2
		l0,0c-0.2,0-0.5,0-0.7,0.1c-0.2,0-0.5,0-0.7,0l0,0c-0.9,0-1.8-0.1-2.5-0.4l0,0c-0.4-0.1-0.7-0.3-1-0.5c-0.3-0.2-0.6-0.4-0.9-0.7
		l0,0c-0.2-0.2-0.3-0.4-0.5-0.6c-0.1-0.2-0.3-0.4-0.4-0.7c-0.1-0.2-0.2-0.5-0.3-0.7c-0.1-0.2-0.2-0.5-0.2-0.8s-0.1-0.6-0.1-0.9
		c0-0.3,0-0.6,0-1l0,0c0-0.4,0-0.8,0.1-1.2c0-0.3,0.1-0.7,0.2-1.1c0.1-0.3,0.2-0.6,0.4-1c0.1-0.3,0.3-0.6,0.5-0.8
		c0.2-0.2,0.4-0.5,0.6-0.7c0.2-0.2,0.5-0.4,0.7-0.6c0.2-0.2,0.5-0.3,0.8-0.5c0.3-0.1,0.6-0.2,0.9-0.3c0.3-0.1,0.6-0.1,1-0.2
		c0.3,0,0.7,0,1,0c0.2,0,0.4,0,0.6,0c0.2,0,0.4,0,0.6,0c0.2,0,0.3,0,0.5,0.1c0.2,0,0.3,0,0.5,0.1l0,0c0.1,0,0.3,0.1,0.4,0.1
		c0.1,0,0.2,0.1,0.3,0.1l0.2,0.1l0,0.2l-0.5,1.9l-0.1,0.3l-0.3-0.1c-0.1,0-0.2-0.1-0.3-0.1c-0.1,0-0.2,0-0.3-0.1l0,0
		c-0.1,0-0.2,0-0.3-0.1c-0.1,0-0.2,0-0.4,0l0,0c-0.1,0-0.3,0-0.4,0s-0.3,0-0.5,0c-0.2,0-0.5,0-0.7,0c-0.2,0-0.5,0.1-0.7,0.2
		c-0.2,0.1-0.4,0.2-0.6,0.3c-0.2,0.1-0.3,0.2-0.5,0.4c-0.1,0.2-0.3,0.3-0.4,0.5c-0.1,0.2-0.2,0.4-0.3,0.7l0,0
		c-0.1,0.2-0.1,0.5-0.2,0.8c0,0.3,0,0.6-0.1,1c0,0.3,0,0.6,0,0.9c0,0.3,0.1,0.6,0.2,0.8c0.1,0.2,0.2,0.5,0.3,0.7
		c0.1,0.2,0.2,0.4,0.4,0.5l0,0c0.1,0.2,0.3,0.3,0.5,0.4l0,0c0.2,0.1,0.3,0.2,0.5,0.3l0,0c0.2,0.1,0.4,0.1,0.6,0.2c0.2,0,0.4,0,0.7,0
		c0.1,0,0.2,0,0.4,0s0.2,0,0.3,0l0,0c0.1,0,0.2,0,0.2,0l0,0v-2.5H130h-0.2v-0.2v-2v-0.2h0.2L130.3,193.6z M141.3,191.4
		C141.3,191.4,141.4,191.5,141.3,191.4l0.3,0.1v0.2v2.2v0.3l-0.3,0c0,0-0.1,0-0.1,0c0,0-0.1,0-0.1,0c0,0-0.1,0-0.1,0s-0.1,0-0.2,0
		c-0.2,0-0.3,0-0.4,0c-0.1,0-0.2,0.1-0.4,0.1c-0.1,0-0.2,0.1-0.3,0.2c-0.1,0.1-0.2,0.2-0.2,0.4l0,0c0,0.1-0.1,0.3-0.2,0.5
		c0,0.2,0,0.4,0,0.6l0,0v4.5v0.2h-0.2h-2.3h-0.2v-0.2v-6c0-0.3,0-0.6,0-0.7c0-0.2,0-0.5,0-0.7l0,0c0-0.2,0-0.4,0-0.6
		c0-0.2,0-0.4,0-0.6v-0.2h0.2h2h0.2l0,0.2l0,0.7c0.1-0.1,0.1-0.2,0.2-0.3l0,0c0.1-0.1,0.2-0.2,0.4-0.4s0.3-0.2,0.5-0.2l0,0
		c0.1-0.1,0.3-0.1,0.5-0.2c0.2,0,0.3,0,0.5,0c0,0,0.1,0,0.2,0l0,0C141.1,191.4,141.1,191.4,141.3,191.4
		C141.2,191.4,141.3,191.3,141.3,191.4L141.3,191.4z M149.8,194.6c0,0.2,0,0.5,0,0.7l0,0v3.2c0,0.2,0,0.3,0,0.4c0,0.1,0,0.2,0,0.4
		l0,0c0,0.1,0,0.2,0,0.4c0,0.1,0,0.2,0,0.3l0,0c0,0.1,0,0.2,0,0.3c0,0.1,0,0.2,0,0.3l0,0.3h-0.3h-2.1h-0.2l0-0.2l0-0.4
		c-0.1,0.1-0.2,0.2-0.3,0.3l0,0c-0.1,0.1-0.2,0.2-0.4,0.2s-0.3,0.1-0.5,0.2c-0.2,0-0.3,0.1-0.5,0.1c-0.2,0-0.3,0-0.5,0l0,0
		c-0.4,0-0.8-0.1-1.2-0.2l0,0c-0.2-0.1-0.3-0.2-0.5-0.2c-0.1-0.1-0.3-0.2-0.4-0.4l0,0c-0.1-0.1-0.2-0.3-0.3-0.4
		c-0.1-0.1-0.2-0.3-0.2-0.5l0,0c0-0.2-0.1-0.3-0.1-0.5c0-0.2,0-0.4,0-0.6l0,0c0-0.3,0-0.6,0.1-0.8c0-0.2,0.2-0.5,0.3-0.7l0,0
		c0.1-0.2,0.3-0.4,0.5-0.6c0.2-0.2,0.4-0.3,0.6-0.5c0.2-0.1,0.5-0.2,0.7-0.4c0.2-0.1,0.5-0.2,0.8-0.2c0.3,0,0.6-0.1,0.9-0.1
		c0.2,0,0.5,0,0.7,0c0,0,0-0.1,0-0.1c0-0.1,0-0.2-0.1-0.3l0,0c0-0.1-0.1-0.2-0.1-0.2s-0.1-0.1-0.2-0.2l0,0c-0.1,0-0.2-0.1-0.3-0.1
		c-0.1,0-0.3,0-0.5,0c-0.2,0-0.4,0-0.6,0c-0.2,0-0.4,0-0.5,0.1l0,0c-0.2,0-0.3,0.1-0.5,0.2c-0.1,0-0.3,0.1-0.4,0.2l-0.3,0.2
		l-0.1-0.3l-0.4-1.5l0-0.2l0.2-0.1c0.1,0,0.2-0.1,0.3-0.2c0.1,0,0.3-0.1,0.4-0.2c0.2,0,0.3-0.1,0.5-0.2c0.2,0,0.4-0.1,0.6-0.1
		c0.2,0,0.4,0,0.6-0.1c0.2,0,0.4,0,0.7,0l0,0c0.3,0,0.7,0,1,0.1c0.3,0,0.6,0.1,0.8,0.2l0,0c0.2,0.1,0.5,0.2,0.6,0.4
		c0.2,0.1,0.4,0.3,0.5,0.5c0.1,0.2,0.2,0.4,0.4,0.6c0.1,0.2,0.2,0.4,0.2,0.6l0,0c0,0.2,0.1,0.5,0.1,0.7v-0.3h0V194.6z M147,198
		c0-0.1,0-0.2,0-0.3l0,0v-1c0,0-0.1,0-0.2,0l0,0c-0.1,0-0.3,0-0.5,0l0,0c-0.1,0-0.2,0-0.4,0.1c-0.1,0-0.2,0.1-0.3,0.1
		c-0.1,0-0.2,0.1-0.3,0.2c-0.1,0.1-0.1,0.1-0.2,0.2l0,0c0,0.1-0.1,0.2-0.1,0.3c0,0.1,0,0.2,0,0.4c0,0.1,0,0.2,0,0.3
		c0,0.1,0,0.2,0.1,0.2l0,0c0,0,0.1,0.1,0.1,0.2c0,0,0.1,0.1,0.2,0.1l0,0c0.1,0,0.3,0.1,0.4,0.1c0,0,0.1,0,0.2,0c0,0,0.1,0,0.2,0l0,0
		c0,0,0.1,0,0.2-0.1c0,0,0.1-0.1,0.2-0.1c0,0,0.1-0.1,0.2-0.2c0,0,0.1-0.1,0.1-0.2l0,0C147,198.2,147,198.1,147,198L147,198z
		 M154.6,188v4.3c0,0,0,0,0,0c0.2-0.2,0.4-0.3,0.6-0.4l0,0c0.2-0.1,0.5-0.2,0.7-0.2s0.5-0.1,0.8-0.1l0,0c0.2,0,0.5,0,0.7,0.1
		c0.2,0,0.5,0.1,0.7,0.2l0,0c0.2,0.1,0.4,0.2,0.6,0.4c0.2,0.2,0.3,0.3,0.5,0.5l0,0c0.1,0.2,0.3,0.4,0.4,0.7l0,0
		c0.1,0.2,0.2,0.5,0.3,0.8l0,0c0.1,0.3,0.1,0.6,0.2,0.9s0,0.6,0,1l0,0c0,0.3,0,0.6,0,0.9c0,0.3-0.1,0.6-0.1,0.8s-0.1,0.5-0.2,0.7
		c-0.1,0.2-0.2,0.5-0.3,0.6l0,0c-0.1,0.2-0.2,0.4-0.4,0.5s-0.3,0.3-0.5,0.5c-0.2,0.1-0.3,0.2-0.5,0.3c-0.2,0.1-0.3,0.2-0.5,0.2
		s-0.4,0.1-0.6,0.1l0,0c-0.2,0-0.4,0-0.6,0l0,0c-0.2,0-0.5,0-0.7-0.1c-0.2,0-0.5-0.1-0.7-0.2l0,0c-0.2-0.1-0.4-0.3-0.6-0.5
		c0,0-0.1-0.1-0.1-0.1l0,0.6l0,0.2h-0.2h-2h-0.2v-0.2c0-0.1,0-0.2,0-0.3c0-0.1,0-0.2,0-0.4l0,0v-0.4v-0.5c0-0.2,0-0.6,0-0.9V188
		v-0.2h0.2h2.3h0.2V188L154.6,188z M154.6,195c0,0.1,0,0.2,0,0.4l0,0v1.7l0,0c0,0.1,0,0.3,0,0.4c0,0.1,0.1,0.2,0.1,0.4l0,0
		c0,0.1,0.1,0.2,0.2,0.3s0.2,0.2,0.2,0.2c0.1,0,0.2,0.1,0.3,0.1c0.1,0,0.2,0,0.4,0c0.2,0,0.3,0,0.4-0.1c0.1,0,0.2-0.1,0.4-0.2l0,0
		c0.1-0.1,0.2-0.2,0.3-0.3c0.1-0.1,0.2-0.3,0.2-0.5l0,0c0-0.2,0.1-0.4,0.1-0.6c0-0.2,0-0.5,0-0.7c0-0.2,0-0.3,0-0.5
		c0-0.2,0-0.3-0.1-0.5c0-0.1-0.1-0.3-0.1-0.4c0-0.1-0.1-0.2-0.2-0.3c0-0.1-0.1-0.2-0.2-0.3c-0.1-0.1-0.2-0.1-0.2-0.2l0,0
		c-0.1,0-0.2-0.1-0.3-0.1c-0.1,0-0.2,0-0.3,0l0,0c-0.1,0-0.2,0-0.2,0c-0.1,0-0.1,0-0.2,0.1l0,0c-0.1,0-0.1,0.1-0.2,0.1l0,0
		c0,0-0.1,0.1-0.2,0.2c0,0-0.1,0.1-0.2,0.2c0,0.1-0.1,0.2-0.1,0.3c0,0.1,0,0.2-0.1,0.3l0,0L154.6,195L154.6,195z M164.8,195.8v4.8
		v0.2h-0.2h-2.3H162v-0.2v-12.1v-0.2h0.2h6.5h0.2v0.2v1.9v0.2h-0.2h-3.9v2.7h3.6h0.2v0.2v1.9v0.2h-0.2L164.8,195.8L164.8,195.8z
		 M172.8,191.7L172.8,191.7c0.5-0.2,1.1-0.3,1.8-0.3l0,0c0.3,0,0.6,0,0.9,0.1c0.3,0,0.6,0.1,0.8,0.2l0,0c0.2,0.1,0.5,0.2,0.7,0.4
		c0.2,0.2,0.4,0.3,0.6,0.6c0.2,0.2,0.3,0.5,0.5,0.7c0.1,0.2,0.2,0.5,0.3,0.8l0,0c0.1,0.3,0.2,0.6,0.2,0.9c0,0.3,0.1,0.6,0.1,1
		c0,0.3,0,0.6,0,1c0,0.3-0.1,0.6-0.2,0.8l0,0c-0.1,0.2-0.2,0.5-0.3,0.7c-0.1,0.2-0.2,0.5-0.4,0.6l0,0c-0.1,0.2-0.3,0.4-0.5,0.5
		c-0.2,0.2-0.3,0.3-0.5,0.4l0,0c-0.2,0.1-0.4,0.2-0.6,0.3s-0.4,0.2-0.6,0.2l0,0c-0.2,0-0.4,0.1-0.6,0.1c-0.2,0-0.4,0-0.6,0l0,0
		c-0.3,0-0.6,0-0.9-0.1c-0.2,0-0.6-0.1-0.8-0.2l0,0c-0.2-0.1-0.5-0.2-0.7-0.4c-0.2-0.2-0.4-0.3-0.6-0.5c-0.2-0.2-0.4-0.4-0.5-0.7
		s-0.3-0.5-0.4-0.8l0,0c-0.1-0.3-0.2-0.6-0.2-0.9l0,0c0-0.3-0.1-0.7-0.1-1c0-0.3,0-0.7,0.1-1.1c0-0.3,0.1-0.6,0.2-1
		c0.1-0.3,0.2-0.6,0.4-0.8c0.1-0.2,0.3-0.5,0.5-0.7c0.2-0.2,0.4-0.4,0.6-0.5l0,0C172.2,191.9,172.5,191.8,172.8,191.7L172.8,191.7
		L172.8,191.7z M175.8,197.3c0-0.3,0.1-0.7,0.1-1c0-0.2,0-0.3,0-0.5c0-0.2,0-0.3,0-0.5c0-0.1,0-0.3-0.1-0.5c0-0.1-0.1-0.3-0.2-0.4
		l0,0c0-0.1-0.1-0.2-0.2-0.3c-0.1-0.1-0.1-0.2-0.2-0.2l0,0c-0.1,0-0.2-0.1-0.3-0.1s-0.2,0-0.3,0c-0.1,0-0.2,0-0.3,0
		c-0.1,0-0.2,0-0.2,0.1c-0.1,0-0.1,0.1-0.2,0.2c0,0-0.1,0.1-0.2,0.2l0,0c0,0.1-0.1,0.2-0.2,0.3c0,0.1-0.1,0.2-0.1,0.3l0,0
		c0,0.1-0.1,0.2-0.1,0.3c0,0.1,0,0.2,0,0.4c0,0.1,0,0.2,0,0.4l0,0c0,0.1,0,0.2,0,0.4c0,0.2,0,0.4,0,0.5c0,0.2,0,0.3,0.1,0.5l0,0
		c0,0.2,0.1,0.3,0.1,0.5s0.1,0.2,0.2,0.4l0,0c0,0.1,0.1,0.2,0.2,0.3s0.2,0.2,0.2,0.2l0,0c0.1,0,0.2,0.1,0.3,0.1l0,0
		c0.1,0,0.2,0,0.3,0s0.2,0,0.3,0c0.1,0,0.2-0.1,0.3-0.1l0,0c0.1,0,0.2-0.1,0.2-0.2c0.1-0.1,0.1-0.2,0.2-0.3l0,0
		c0-0.1,0.1-0.2,0.2-0.4C175.8,197.5,175.8,197.4,175.8,197.3z M182.5,191.7L182.5,191.7c0.5-0.2,1.1-0.3,1.8-0.3l0,0
		c0.3,0,0.6,0,0.9,0.1c0.3,0,0.6,0.1,0.8,0.2l0,0c0.2,0.1,0.5,0.2,0.7,0.4c0.2,0.2,0.4,0.3,0.6,0.6c0.2,0.2,0.3,0.5,0.5,0.7
		c0.1,0.2,0.2,0.5,0.3,0.8l0,0c0.1,0.3,0.2,0.6,0.2,0.9c0,0.3,0.1,0.6,0.1,1c0,0.3,0,0.6,0,1c0,0.3-0.1,0.6-0.2,0.8l0,0
		c-0.1,0.2-0.2,0.5-0.3,0.7c-0.1,0.2-0.2,0.5-0.4,0.6l0,0c-0.1,0.2-0.3,0.4-0.5,0.5c-0.2,0.2-0.3,0.3-0.5,0.4l0,0
		c-0.2,0.1-0.4,0.2-0.6,0.3c-0.2,0.1-0.4,0.2-0.6,0.2l0,0c-0.2,0-0.4,0.1-0.6,0.1c-0.2,0-0.4,0-0.6,0l0,0c-0.3,0-0.6,0-0.9-0.1
		c-0.3,0-0.6-0.1-0.8-0.2l0,0c-0.2-0.1-0.5-0.2-0.7-0.4c-0.2-0.2-0.4-0.3-0.6-0.5c-0.2-0.2-0.4-0.4-0.5-0.7s-0.3-0.5-0.4-0.8l0,0
		c-0.1-0.3-0.2-0.6-0.2-0.9l0,0c0-0.3-0.1-0.7-0.1-1c0-0.3,0-0.7,0.1-1.1s0.1-0.6,0.2-1c0.1-0.3,0.2-0.6,0.4-0.8
		c0.1-0.2,0.3-0.5,0.5-0.7c0.2-0.2,0.4-0.4,0.6-0.5l0,0C182,191.9,182.2,191.8,182.5,191.7L182.5,191.7L182.5,191.7z M185.5,197.3
		c0-0.3,0.1-0.7,0.1-1c0-0.2,0-0.3,0-0.5c0-0.2,0-0.3,0-0.5c0-0.1,0-0.3-0.1-0.5c0-0.1-0.1-0.3-0.2-0.4l0,0c0-0.1-0.1-0.2-0.2-0.3
		s-0.1-0.2-0.2-0.2l0,0c-0.1,0-0.2-0.1-0.3-0.1c-0.1,0-0.2,0-0.3,0s-0.2,0-0.3,0c-0.1,0-0.2,0-0.2,0.1c-0.1,0-0.1,0.1-0.2,0.2
		c0,0-0.1,0.1-0.2,0.2l0,0c0,0.1-0.1,0.2-0.2,0.3c0,0.1-0.1,0.2-0.1,0.3l0,0c0,0.1-0.1,0.2-0.1,0.3c0,0.1,0,0.2,0,0.4
		c0,0.1,0,0.2,0,0.4l0,0c0,0.1,0,0.2,0,0.4c0,0.2,0,0.4,0,0.5c0,0.2,0,0.3,0.1,0.5l0,0c0,0.2,0.1,0.3,0.1,0.5s0.1,0.2,0.2,0.4l0,0
		c0,0.1,0.1,0.2,0.2,0.3c0.1,0.1,0.2,0.2,0.2,0.2l0,0c0.1,0,0.2,0.1,0.3,0.1l0,0c0.1,0,0.2,0,0.3,0c0.1,0,0.2,0,0.3,0
		c0.1,0,0.2-0.1,0.3-0.1l0,0c0.1,0,0.2-0.1,0.2-0.2c0.1-0.1,0.1-0.2,0.2-0.3l0,0c0-0.1,0.1-0.2,0.2-0.4
		C185.5,197.5,185.5,197.4,185.5,197.3z M195.6,187.7h2.3h0.2v0.2v10.2c0,0.2,0,0.4,0,0.5c0,0.1,0,0.3,0,0.5l0,0c0,0.1,0,0.3,0,0.4
		c0,0.1,0,0.3,0,0.4l0,0c0,0.2,0,0.5,0,0.7v0.2h-0.2h-2h-0.2l0-0.2l0-0.6c-0.1,0.1-0.2,0.2-0.3,0.3l0,0c-0.1,0.1-0.3,0.2-0.4,0.3
		s-0.3,0.2-0.5,0.2c-0.2,0-0.3,0.1-0.5,0.1c-0.2,0-0.4,0-0.6,0l0,0c-0.2,0-0.5,0-0.7-0.1c-0.2,0-0.5-0.1-0.7-0.2l0,0
		c-0.2-0.1-0.4-0.2-0.6-0.4c-0.2-0.2-0.4-0.3-0.5-0.6l0,0c-0.2-0.2-0.3-0.4-0.4-0.7s-0.2-0.5-0.3-0.8l0,0c-0.1-0.3-0.1-0.6-0.2-0.9
		c0-0.3,0-0.6,0-1l0,0c0-0.4,0-0.7,0.1-1.1c0-0.3,0.1-0.6,0.2-1l0,0c0.1-0.3,0.2-0.6,0.3-0.8s0.3-0.5,0.5-0.7l0,0
		c0.2-0.2,0.4-0.4,0.6-0.5c0.2-0.2,0.4-0.3,0.6-0.4l0,0c0.2-0.1,0.5-0.2,0.7-0.2c0.2,0,0.5-0.1,0.7-0.1l0,0c0.2,0,0.4,0,0.5,0
		c0.2,0,0.3,0,0.5,0.1l0,0c0.1,0,0.3,0.1,0.4,0.2c0.1,0,0.2,0.1,0.4,0.2l0,0c0,0,0,0,0.1,0.1v-4.1V188L195.6,187.7L195.6,187.7z
		 M195.3,197.4c0-0.1,0-0.3,0-0.4l0,0v-1.6l0,0c0-0.1,0-0.3,0-0.4c0-0.1,0-0.2-0.1-0.3l0,0c0-0.1-0.1-0.2-0.1-0.3
		c0-0.1-0.1-0.2-0.2-0.2l0,0c0,0-0.1-0.1-0.2-0.2c0,0-0.1-0.1-0.2-0.1c-0.1,0-0.3-0.1-0.5-0.1l0,0c-0.1,0-0.2,0-0.3,0
		c-0.1,0-0.2,0.1-0.3,0.1l0,0c-0.1,0-0.2,0.1-0.2,0.2c-0.1,0.1-0.1,0.2-0.2,0.3l0,0c0,0.1-0.1,0.2-0.2,0.4c0,0.1-0.1,0.3-0.1,0.4
		l0,0c0,0.1,0,0.3-0.1,0.5c0,0.2,0,0.3,0,0.5c0,0.2,0,0.5,0,0.7c0,0.2,0.1,0.4,0.1,0.6l0,0c0,0.2,0.1,0.3,0.2,0.5s0.2,0.2,0.3,0.3
		l0,0c0.1,0.1,0.2,0.2,0.3,0.2l0,0c0.1,0,0.3,0,0.4,0l0,0c0.1,0,0.1,0,0.2,0c0.1,0,0.1,0,0.2,0l0,0c0.1,0,0.1,0,0.2-0.1
		c0,0,0.1-0.1,0.2-0.2l0,0c0,0,0.1-0.1,0.2-0.2c0-0.1,0.1-0.2,0.1-0.3l0,0C195.2,197.7,195.2,197.6,195.3,197.4L195.3,197.4z"/>
	<path class="st3" d="M223.5,261.9c0-2.3-0.2-4.7,2.1-6.2c3-2.1,7.8-0.4,7.8,3.7c0,1.8,0.2,3.1-0.4,4.6c-0.2,0.5-0.6,1.1-0.9,1.5
		c-1.5,1.5-3.9,1.9-5.7,1c-0.5-0.2-1-0.6-1.4-1C224.2,264.6,223.5,263.4,223.5,261.9L223.5,261.9z M233.4,252.4
		c-0.3-0.2-0.4-0.4-0.8-0.7c-0.3-0.2-0.6-0.4-1-0.5c-2.1-1-5.2-0.6-7.3,0.2c-3.1,1.3-5,4.7-5,8.3c0,2.3-0.1,4,0.7,6.1
		c2.1,5,7.9,6.4,12.4,4.6c0.6-0.2,1-0.5,1.4-0.7c1-0.6,1.1-0.8,1.8-1.6c0.2-0.2,0.3-0.4,0.5-0.6c1-1.5,1.6-3.3,1.6-5.3v-18.7h-4.3
		L233.4,252.4L233.4,252.4z"/>
	<path class="st3" d="M187.4,267c-0.7,0-1.5-0.2-2.1-0.4c-1.7-0.7-2.9-2.7-2.9-4.7c0-2.1-0.2-4,1.3-5.6c3.1-3.1,8.6-1.2,8.6,3.7
		c0,1.9,0,3.9-1.3,5.3c-0.4,0.4-0.9,0.8-1.5,1.1C189,266.6,188.1,266.9,187.4,267L187.4,267z M178.1,259.6c0,3.1-0.1,5,1.5,7.7
		c2.3,3.7,7.9,4.8,11.8,3.1c0.6-0.2,1-0.5,1.5-0.8c0.2-0.2,0.4-0.3,0.6-0.5c1.1-0.9,1.9-2,2.4-3.5c1-2.9,1-8.2-0.7-10.8
		c-0.4-0.6-1-1.4-1.5-1.9c-0.2-0.2-0.3-0.3-0.6-0.5c-2.4-1.6-3.7-1.8-6.6-1.8c-2.3,0-4.6,1.1-6.1,2.6
		C178.9,254.7,178,257.2,178.1,259.6L178.1,259.6z"/>
	<path class="st3" d="M207.8,267c-2,0-3.9-1.2-4.6-3c-0.6-1.5-0.5-2.5-0.5-4.1c0-6.8,10-6.9,10,0.2c0,1.3,0.1,2.4-0.4,3.6
		c-0.2,0.5-0.6,1.3-0.9,1.6C210.5,266.3,209.3,267,207.8,267L207.8,267z M198.5,259.6v2.4c0,5.2,3.8,9.1,9.1,9.1
		c1.7,0,3-0.2,4.2-0.8c0.9-0.4,1.5-0.7,2.2-1.3c2.8-2.5,3.1-5.4,3.1-8.9c0-2.3-0.5-4.3-1.8-6c-0.8-1.2-1.8-1.9-3.1-2.6
		c-2.4-1.2-6.2-1.2-8.7-0.1c-2,0.9-3.5,2.4-4.3,4.5C198.7,256.9,198.4,258.2,198.5,259.6L198.5,259.6z"/>
	<path class="st3" d="M162.1,246.7v23.8c0,0.2,0,0.2,0.2,0.2h4c0.2,0,0.2,0,0.2-0.2v-9.2h8.8v-4.2h-8.9v-6.5h9.8v-3.9
		c0-0.2,0-0.2-0.2-0.2h-13.8C162.1,246.4,162.1,246.5,162.1,246.7z"/>
	<path class="st3" d="M85.2,258.4c0,3.1,0.1,4.4,1.5,7c0.2,0.3,0.3,0.6,0.5,0.9c0.4,0.6,0.8,1,1.3,1.5c1.1,1.1,1.7,1.6,3.2,2.4
		c3.2,1.6,8,1.4,11.1-0.2c0.6-0.3,1.2-0.6,1.8-1.2c0.2-0.2,1.1-0.9,1.1-1.2v-9.7h-9.4v1.9h7.6v7.2c0,0.3-0.8,0.9-1.1,1
		c-0.5,0.3-0.9,0.5-1.5,0.7c-3.9,1.4-8.4,0.8-11.4-2.1c-1.4-1.3-2.8-3.9-2.8-6.6c0-2,0-3.6,1.1-5.4l2.1-2.8c2.8-2.2,4.4-2.8,8.2-2.8
		c1,0,2,0.1,2.8,0.3l1.8,0.6c0.2,0.1,0.4,0.2,0.6,0.3v-2.1c-0.8-0.2-0.7-0.4-2.7-0.7c-2.7-0.5-5.7-0.2-8.2,0.7
		c-1.2,0.5-2.7,1.4-3.6,2.3c-0.6,0.6-0.6,0.5-1.4,1.5c-0.2,0.3-0.4,0.5-0.6,0.8c-0.2,0.3-0.3,0.6-0.6,0.9
		C85.7,255,85.2,257.1,85.2,258.4L85.2,258.4z"/>
	<path class="st3" d="M119.3,259.4c0,2.4-0.2,4,0.9,6.2c0.4,0.7,1.2,2,1.9,2.6c2.2,1.9,4.6,3,7.8,2.4c0.5-0.1,0.9-0.3,1.3-0.4v-1.9
		c-2,0.5-3.1,1-5.6-0.1c-0.5-0.2-0.7-0.3-1.1-0.6c-0.6-0.4-1.3-1-1.8-1.7c-1.7-2.3-1.4-3.8-1.4-6.5c0-0.8,0.4-2,0.7-2.6
		c0.9-2.1,3.6-4,6-4c2.1,0,3.5,0.4,5.1,1.7s2.5,3.1,2.5,5.3v10.9h1.9v-11c0-1.2-0.4-2.7-0.8-3.5c-0.7-1.5-0.7-1.3-1.6-2.3
		c-1.3-1.7-4.1-3-6.3-3h-0.8C123.4,250.9,119.2,255.3,119.3,259.4L119.3,259.4z"/>
	<path class="st3" d="M138.5,261.5c0.2-0.2,1.9-2.3,2.2-2.7l2.3-2.6c2.1-2.1,3.5-3.5,6.9-3.5c1.8,0,3.5,0.9,4.7,2.1l0.1,0.1
		c2.1,2.3,2.1,3.8,2.1,6.7c0,6.8-8.9,9.9-13,4c-0.3-0.4-0.8-1.5-0.9-2.1c-0.2,0-0.2,0.2-0.4,0.3s-0.2,0.2-0.3,0.4
		c-0.1,0.1-0.6,0.7-0.6,0.7c0,1.2,1.8,3.1,2.8,3.9c6.5,4.4,14.3-0.5,14.3-7.6v-1.6c0-2.7-1.2-4.9-2.6-6.2c-0.8-0.8-1.4-1.3-2.5-1.9
		c-2.8-1.4-6.2-1.2-8.8,0.6l-1.2,0.8c-1,0.7-1.9,1.7-2.7,2.6c-0.1,0.2-0.1,0.2-0.3,0.3c-0.1,0.2-0.2,0.2-0.3,0.4
		c-0.2,0.2-0.4,0.5-0.6,0.7C138.1,259.1,138.5,258.9,138.5,261.5z"/>
	<path class="st3" d="M88.3,259v0.6c0,4.7,3.8,8.5,8.5,8.5c1.6,0,3.4-0.3,4.7-0.9c0.2-0.1,1-0.6,1-0.8v-5.5h-6.2v1.9h4.5v2.8
		c-1.5,0.3-1.8,0.7-3.9,0.7c-3.8,0-6.7-3-6.7-6.8v-0.7c0-2,1.2-3.8,2.3-4.7c2.4-2,5.5-2.3,8.5-1.6c0.5,0.1,1,0.3,1.4,0.5
		c0.4,0.2,0.7,0.5,1.1,0.7v-2.3c-0.4-0.1-0.8-0.4-1.2-0.5c-3.2-1.1-6.9-1.1-9.8,0.7l-1.3,1C89.7,254.1,88.2,256.2,88.3,259L88.3,259
		z"/>
	<path class="st3" d="M138.5,266.6c0.1-0.1,3.7-4.6,4.6-5.6c1-1,1.9-2.2,2.9-3.2c1.4-1.4,3.1-2.6,5.3-1.5c1.9,0.9,2.3,2.6,2.3,4.8
		c0,1.5-0.3,2.3-1,3.1c-0.7,1-1.9,1.4-3.2,1.4c-2.1,0-4-2.9-4-5.1c-0.3,0.2-1.2,1.6-1.6,1.8c0.3,0.6,0.3,1.9,1.9,3.4
		c0.9,0.9,2.2,1.8,3.6,1.8c1.2,0,1.9,0,2.9-0.5c1.8-0.8,3.3-2.9,3.3-4.9c0-2.8,0.3-4.2-1.9-6.3c-0.8-0.8-2.4-1.7-4-1.7
		c-1.6,0-3.2,1-4.1,1.8c-1,0.8-3.2,3.4-4.3,4.5c-0.4,0.5-2.6,3-2.7,3.3C138.3,264.2,138.5,266.1,138.5,266.6L138.5,266.6z"/>
	<path class="st3" d="M122.4,259.9c0,2.3-0.1,4,1.7,5.8c1.6,1.6,3.7,2.3,5.9,1.6c0.6-0.2,0.8-0.4,1.1-0.5v-2.1c-3.2,2.1-6.8,0-6.8-3
		v-1.9c0-3.2,4.1-5.5,6.9-2.7c0.7,0.7,1.1,1.7,1.1,3.1v10.5h1.9v-10.5c0-4.5-4.2-7.4-8.3-5.6c-0.5,0.2-1.3,0.7-1.8,1.2
		c-0.1,0.1-0.2,0.2-0.3,0.4C123,257.2,122.4,258.4,122.4,259.9L122.4,259.9z"/>
	<path class="st3" d="M107.7,259.8v11h1.9v-11c0-2.6,1.5-5.3,3.9-6.2c1.9-0.7,4.1-1,6-0.1c0.2,0.1,0.4,0.2,0.6,0.3
		c0.1-0.5,1-1,1.2-1.5c-0.1,0-1-0.5-1.8-0.8c-1.1-0.4-2-0.4-3.2-0.4c-2.8,0-5.5,1.6-7,3.8C108.3,256.2,107.7,257.9,107.7,259.8
		L107.7,259.8z"/>
	<path class="st3" d="M110.8,260.4v10.1c0,0.4,0.7,0.2,1.9,0.2v-10.4c0-3.1,2-4.8,5-4.3c0.3,0,0.6,0.2,0.9,0.2
		c0.1-0.3,0.2-0.5,0.4-0.8c0.1-0.2,0.4-0.6,0.4-0.8c-0.2,0-0.3-0.1-0.6-0.2c-2.2-0.8-4.8-0.1-6.3,1.5
		C111.3,257.1,110.8,258.8,110.8,260.4L110.8,260.4z"/>
	<path class="st3" d="M140.4,254.6c0.3-0.2,0.9-1.1,1.7-1.7c0.1-0.1,0.2-0.1,0.2-0.3V243h-1.9L140.4,254.6L140.4,254.6z"/>
	<path class="st3" d="M143.5,251.9c0.5-0.2,0.8-0.6,1.4-1c0.2-0.1,0.5-0.2,0.5-0.4v-7.6h-1.9V251.9z"/>
</g>
</svg>
