<?xml version="1.0" encoding="utf-8"?>
<!-- Generator: Adobe Illustrator 24.0.2, SVG Export Plug-In . SVG Version: 6.00 Build 0)  -->
<svg version="1.1" id="Layer_1" xmlns="http://www.w3.org/2000/svg" xmlns:xlink="http://www.w3.org/1999/xlink" x="0px" y="0px"
	 viewBox="0 0 322.8 368.5" style="enable-background:new 0 0 322.8 368.5;" xml:space="preserve">
<style type="text/css">
	.st0{fill-rule:evenodd;clip-rule:evenodd;fill:#029835;}
	.st1{fill-rule:evenodd;clip-rule:evenodd;fill:#FFFFFF;}
	.st2{fill:#FFFFFF;}
	.st3{fill-rule:evenodd;clip-rule:evenodd;fill:#00AE41;}
</style>
<g id="Layer_x0020_1">
	<path class="st0" d="M161.4,44.2c56.5,0,102.3,45.8,102.3,102.3s-45.8,102.3-102.3,102.3S59.2,202.9,59.2,146.4
		S104.9,44.2,161.4,44.2z"/>
	<path class="st1" d="M119.6,107.7h85.5v63.1h-85.5V107.7z M176.9,160.7c-0.9,0.6-1.7,0.2-2.5-0.6l-13.3-13.2l-13.5,13.3
		c-0.8,0.8-1.7,1.2-2.6,0.6c-0.1-0.1-1.7-1.7-1.8-1.8c-0.6-0.9-0.2-1.7,0.6-2.5l13.3-13.4l-4.6-4.6c-4.7,3.1-9.7,0.4-12.9-3.6
		c-1.4-1.7-3.2-5.3-3.8-8.5c-0.4-1.9-0.3-3.6,0.1-5.1c0.6-2,1.2-2.6,3.2-3.2c1.5-0.4,3.2-0.5,5.1-0.1c3.3,0.6,6.8,2.4,8.5,3.8
		c4,3.2,6.7,8.1,3.6,12.9l4.6,4.6l4.3-4.3c-0.1-2-0.1-4.3,0.1-5.3c0.2-0.8,0.7-1.3,1.9-2.4l12.1-10.8c2.1-2.2,3.7-0.7,1.4,1.4
		l-8,7.6c-0.9,0.9-1.5,1.7-0.5,2.7c1.1,1.1,1.7,0.5,2.5-0.4l8.4-8.4c0.6-0.7,1.5-0.8,1.9-0.4c0.5,0.4,0.3,1.2-0.4,1.9l-8.4,8.4
		c-0.8,0.8-1.4,1.5-0.4,2.5c1,1.1,1.8,0.5,2.7-0.5l7.6-8c2.1-2.3,3.7-0.7,1.4,1.4L177,136.6c-1.1,1.2-1.6,1.7-2.4,1.9
		c-1,0.2-3.3,0.3-5.3,0.1l-4.3,4.3l13.2,13.3c0.8,0.8,1.2,1.7,0.6,2.6C178.6,159,176.9,160.5,176.9,160.7L176.9,160.7z M123.2,105.5
		c-0.6,0-0.8-0.8,0-1.4l22-20.5h17.1h17.1l22,20.5c0.8,0.6,0.6,1.4,0,1.4h-39.1H123.2z M122.9,93.1l0.2,9.1l16.7-15.6h-9.9
		C125.6,86.5,122.5,88.9,122.9,93.1z M201.7,93.1l-0.2,9.1l-16.7-15.6h9.9C199,86.5,202,88.9,201.7,93.1z M153.6,90.8h5.9h1.5h9.8
		c0.9,0,1.7,0.7,1.7,1.7v2.5c0,0.1,0,0.2,0,0.3h-9.8h-4.7H152c0-0.1,0-0.2,0-0.3v-2.5C151.9,91.5,152.7,90.8,153.6,90.8L153.6,90.8z
		"/>
	<path class="st2" d="M111.3,199.4h6.4h0.4v0.4v10.1v0.3l-0.3,0.1c-0.2,0.1-0.5,0.1-0.7,0.2c-0.2,0.1-0.5,0.1-0.8,0.2l0,0
		c-0.6,0.1-1.2,0.3-2,0.4l0,0c-0.4,0-0.7,0.1-1.1,0.1c-0.4,0-0.7,0-1.1,0l0,0c-1.5,0-2.8-0.2-4-0.6l0,0c-0.6-0.2-1.1-0.5-1.7-0.8
		s-1-0.7-1.4-1.1l0,0c-0.3-0.3-0.6-0.6-0.8-1c-0.2-0.3-0.5-0.7-0.7-1.1c-0.2-0.4-0.4-0.8-0.6-1.2c-0.1-0.4-0.3-0.9-0.4-1.4
		c-0.1-0.5-0.2-1-0.2-1.5c0-0.5-0.1-1-0.1-1.6l0,0c0-0.7,0-1.3,0.1-1.9s0.2-1.2,0.4-1.7c0.2-0.6,0.4-1.1,0.6-1.6
		c0.2-0.5,0.5-1,0.8-1.4s0.6-0.8,1.1-1.1c0.4-0.4,0.8-0.7,1.2-1s0.9-0.6,1.4-0.7c0.5-0.2,1-0.4,1.5-0.6c0.5-0.1,1.1-0.2,1.6-0.3
		c0.6-0.1,1.1-0.1,1.7-0.1c0.3,0,0.6,0,1,0c0.3,0,0.6,0,0.9,0.1c0.3,0,0.6,0.1,0.8,0.1c0.3,0,0.5,0.1,0.7,0.2l0,0
		c0.2,0,0.5,0.1,0.6,0.2c0.2,0.1,0.4,0.1,0.6,0.2l0.3,0.1l-0.1,0.3l-0.8,3.1l-0.1,0.5l-0.5-0.2c-0.1,0-0.3-0.1-0.5-0.2
		c-0.1,0-0.3-0.1-0.5-0.1l0,0c-0.2,0-0.3-0.1-0.6-0.1c-0.2,0-0.4-0.1-0.6-0.1l0,0c-0.2,0-0.5,0-0.7,0s-0.5,0-0.8,0
		c-0.4,0-0.8,0-1.2,0.1c-0.4,0-0.7,0.1-1.1,0.3c-0.3,0.1-0.6,0.3-1,0.5c-0.3,0.2-0.6,0.4-0.8,0.7c-0.2,0.3-0.5,0.6-0.7,0.9
		c-0.2,0.3-0.4,0.7-0.5,1.1l0,0c-0.1,0.4-0.2,0.8-0.3,1.3s-0.1,1-0.1,1.6c0,0.6,0,1.1,0.1,1.5c0,0.5,0.2,0.9,0.3,1.3
		c0.1,0.4,0.3,0.8,0.5,1.1s0.4,0.6,0.6,0.9l0,0c0.2,0.3,0.5,0.5,0.7,0.7l0,0c0.3,0.2,0.6,0.4,0.9,0.5l0,0c0.3,0.1,0.6,0.2,1,0.3
		c0.3,0,0.7,0.1,1.1,0.1c0.2,0,0.4,0,0.6,0c0.2,0,0.4,0,0.5,0l0,0c0.1,0,0.3,0,0.4-0.1l0,0v-4H111h-0.4v-0.4v-2.9v-0.4h0.4
		L111.3,199.4z M129,195.9c0.1,0,0.1,0,0.2,0l0.3,0v0.3v3.6v0.5l-0.5-0.1c0,0-0.1,0-0.2,0c0,0-0.1,0-0.2,0c-0.1,0-0.1,0-0.2,0
		c0,0-0.1,0-0.3,0c-0.3,0-0.5,0-0.7,0.1c-0.2,0-0.4,0.1-0.6,0.2c-0.2,0.1-0.4,0.2-0.5,0.4s-0.3,0.4-0.4,0.6l0,0
		c-0.1,0.2-0.2,0.5-0.3,0.8c0,0.3-0.1,0.6-0.1,1l0,0v7.3v0.4h-0.4h-3.7H121v-0.4v-9.7c0-0.5,0-0.9,0-1.2c0-0.4,0-0.8,0-1.1l0,0
		c0-0.4,0-0.7,0-1.1c0-0.3,0-0.6,0-1v-0.4h0.4h3.2h0.4l0,0.4l0.1,1.1c0.1-0.2,0.2-0.3,0.4-0.5l0,0c0.2-0.2,0.4-0.4,0.6-0.6
		s0.5-0.3,0.7-0.4l0,0c0.2-0.1,0.5-0.2,0.7-0.3c0.3,0,0.5-0.1,0.8-0.1c0,0,0.1,0,0.3,0l0,0c0.1,0,0.2,0,0.2,0
		C128.9,195.7,129,195.7,129,195.9L129,195.9z M142.7,200.9c0,0.4,0,0.8,0,1.2l0,0v5.1c0,0.3,0,0.5,0,0.6c0,0.2,0,0.4,0,0.6l0,0
		c0,0.2,0,0.4,0,0.6c0,0.2,0,0.4,0,0.6l0,0c0,0.2,0,0.3,0,0.5c0,0.1,0,0.3,0,0.5l0.1,0.5h-0.5h-3.4h-0.3l0-0.3l-0.1-0.7
		c-0.2,0.2-0.4,0.3-0.6,0.5l0,0c-0.2,0.1-0.4,0.3-0.6,0.4c-0.2,0.1-0.5,0.2-0.7,0.3c-0.3,0.1-0.5,0.1-0.8,0.2c-0.3,0-0.6,0-0.8,0
		l0,0c-0.7,0-1.3-0.1-1.9-0.4l0,0c-0.3-0.1-0.6-0.3-0.8-0.4c-0.2-0.2-0.5-0.4-0.7-0.6l0,0c-0.2-0.2-0.4-0.5-0.6-0.7
		c-0.1-0.2-0.3-0.5-0.4-0.8l0,0c-0.1-0.3-0.2-0.6-0.2-0.9c0-0.3-0.1-0.6-0.1-0.9l0,0c0-0.5,0-0.9,0.1-1.4c0.1-0.4,0.3-0.8,0.5-1.2
		l0,0c0.2-0.4,0.5-0.7,0.7-1c0.3-0.3,0.6-0.6,1-0.8c0.4-0.2,0.8-0.4,1.2-0.6c0.4-0.2,0.9-0.3,1.4-0.4c0.5-0.1,1-0.2,1.5-0.2
		c0.4,0,0.8,0,1.2-0.1c0-0.1,0-0.1,0-0.2c0-0.2-0.1-0.4-0.1-0.5l0,0c0-0.1-0.1-0.3-0.2-0.4c-0.1-0.1-0.2-0.2-0.4-0.3l0,0
		c-0.1-0.1-0.3-0.1-0.6-0.2c-0.2,0-0.5-0.1-0.8-0.1s-0.6,0-0.9,0c-0.3,0-0.6,0.1-0.9,0.2l0,0c-0.3,0.1-0.6,0.2-0.8,0.3
		c-0.2,0.1-0.5,0.2-0.7,0.4l-0.5,0.3l-0.1-0.5l-0.7-2.4l-0.1-0.3l0.3-0.1c0.2-0.1,0.4-0.2,0.6-0.3c0.2-0.1,0.5-0.2,0.7-0.3
		c0.3-0.1,0.5-0.2,0.8-0.3c0.3-0.1,0.6-0.1,0.9-0.2s0.6-0.1,1-0.1s0.7,0,1.1,0l0,0c0.6,0,1.1,0,1.6,0.1c0.5,0.1,0.9,0.2,1.3,0.4l0,0
		c0.4,0.2,0.7,0.4,1.1,0.6c0.3,0.2,0.6,0.5,0.8,0.8c0.2,0.3,0.4,0.6,0.6,1c0.1,0.3,0.3,0.7,0.4,1.1l0,0c0.1,0.4,0.1,0.7,0.2,1.1
		V200.9z M138.2,206.3c0-0.2,0-0.3,0-0.6l0,0v-1.6c-0.1,0-0.2,0-0.3,0l0,0c-0.2,0-0.5,0-0.7,0.1l0,0c-0.2,0-0.4,0.1-0.6,0.1
		c-0.2,0-0.4,0.1-0.6,0.2c-0.2,0.1-0.3,0.2-0.5,0.3c-0.1,0.1-0.2,0.2-0.3,0.4l0,0c-0.1,0.1-0.1,0.3-0.2,0.5c0,0.2-0.1,0.4-0.1,0.6
		c0,0.2,0,0.4,0,0.5c0,0.1,0.1,0.3,0.1,0.4l0,0c0,0.1,0.1,0.2,0.2,0.3c0.1,0.1,0.2,0.1,0.3,0.2l0,0c0.2,0.1,0.5,0.1,0.7,0.1
		c0.1,0,0.2,0,0.3,0c0.1,0,0.2,0,0.3-0.1l0,0c0.1,0,0.2-0.1,0.3-0.1c0.1,0,0.2-0.1,0.3-0.2c0.1-0.1,0.2-0.1,0.3-0.3
		c0.1-0.1,0.1-0.2,0.2-0.4l0,0C138.1,206.5,138.1,206.4,138.2,206.3L138.2,206.3z M150.4,190.3v6.9c0,0,0,0,0.1-0.1
		c0.3-0.3,0.6-0.5,1-0.7l0,0c0.4-0.2,0.7-0.3,1.2-0.4c0.4-0.1,0.9-0.1,1.3-0.1l0,0c0.4,0,0.8,0,1.2,0.1c0.4,0.1,0.7,0.2,1.1,0.4l0,0
		c0.3,0.2,0.6,0.4,1,0.7c0.3,0.3,0.6,0.6,0.8,0.9l0,0c0.2,0.3,0.5,0.7,0.6,1.1l0,0c0.2,0.4,0.3,0.8,0.5,1.3l0,0
		c0.1,0.5,0.2,0.9,0.3,1.4c0,0.5,0.1,1,0.1,1.6l0,0c0,0.6,0,1-0.1,1.5c0,0.5-0.1,0.9-0.2,1.3c-0.1,0.4-0.2,0.8-0.4,1.2
		c-0.1,0.4-0.3,0.7-0.5,1.1l0,0c-0.2,0.3-0.4,0.6-0.6,0.9c-0.2,0.3-0.5,0.5-0.7,0.7c-0.3,0.2-0.6,0.4-0.8,0.6
		c-0.3,0.2-0.6,0.3-0.9,0.4c-0.3,0.1-0.6,0.2-0.9,0.2l0,0c-0.3,0-0.6,0.1-0.9,0.1l0,0c-0.4,0-0.8,0-1.2-0.1
		c-0.4-0.1-0.8-0.2-1.1-0.4l0,0c-0.4-0.2-0.7-0.5-1-0.8c-0.1-0.1-0.1-0.2-0.2-0.2l-0.1,0.9l0,0.4h-0.4h-3.2h-0.4v-0.4
		c0-0.2,0-0.4,0-0.6c0-0.2,0-0.4,0-0.6l0,0v-0.7v-0.7c0-0.4,0-0.9,0-1.5v-16.3v-0.4h0.4h3.7h0.4L150.4,190.3L150.4,190.3z
		 M150.5,201.6c0,0.2,0,0.4,0,0.6l0,0v2.8l0,0c0,0.2,0,0.5,0.1,0.7c0,0.2,0.1,0.4,0.2,0.6l0,0c0.1,0.2,0.2,0.4,0.3,0.5
		s0.3,0.3,0.4,0.4c0.1,0.1,0.3,0.2,0.5,0.2c0.2,0,0.4,0.1,0.6,0.1c0.3,0,0.5,0,0.7-0.1c0.2-0.1,0.4-0.2,0.6-0.3l0,0
		c0.2-0.1,0.3-0.3,0.5-0.6s0.3-0.5,0.4-0.8l0,0c0.1-0.3,0.2-0.6,0.2-1s0.1-0.8,0.1-1.2c0-0.3,0-0.6,0-0.8c0-0.3-0.1-0.5-0.1-0.8
		c0-0.2-0.1-0.5-0.2-0.7c-0.1-0.2-0.2-0.4-0.3-0.6c-0.1-0.2-0.2-0.3-0.3-0.5c-0.1-0.1-0.3-0.2-0.4-0.3l0,0c-0.1-0.1-0.3-0.1-0.5-0.2
		c-0.2,0-0.4-0.1-0.6-0.1l0,0c-0.1,0-0.3,0-0.4,0c-0.1,0-0.2,0.1-0.4,0.1l0,0c-0.1,0-0.2,0.1-0.4,0.2l0,0c-0.1,0.1-0.2,0.2-0.3,0.3
		c-0.1,0.1-0.2,0.2-0.3,0.4s-0.1,0.3-0.2,0.5C150.7,201.3,150.6,201.4,150.5,201.6L150.5,201.6z M166.8,202.9v7.7v0.4h-0.4h-3.7
		h-0.4v-0.4v-19.4v-0.4h0.4H173h0.4v0.4v3.1v0.4H173h-6.2v4.3h5.8h0.4v0.4v3.1v0.4h-0.4L166.8,202.9L166.8,202.9z M179.7,196.3
		L179.7,196.3c0.9-0.4,1.8-0.5,2.8-0.5l0,0c0.5,0,1,0,1.5,0.1c0.5,0.1,0.9,0.2,1.3,0.4l0,0c0.4,0.2,0.8,0.4,1.1,0.7
		c0.4,0.3,0.7,0.6,1,0.9c0.3,0.3,0.6,0.7,0.8,1.1c0.2,0.4,0.4,0.8,0.6,1.3l0,0c0.1,0.5,0.3,1,0.4,1.5s0.1,1.1,0.1,1.6
		c0,0.6,0,1.1-0.1,1.6c0,0.5-0.2,1-0.3,1.4l0,0c-0.1,0.4-0.3,0.8-0.5,1.2c-0.2,0.4-0.4,0.7-0.6,1l0,0c-0.2,0.3-0.5,0.6-0.7,0.8
		c-0.3,0.3-0.6,0.5-0.9,0.7l0,0c-0.3,0.2-0.6,0.4-0.9,0.5s-0.6,0.3-1,0.4l0,0c-0.3,0.1-0.6,0.1-1,0.2c-0.3,0-0.7,0-1,0l0,0
		c-0.5,0-1,0-1.4-0.1c-0.5-0.1-0.9-0.2-1.3-0.4l0,0c-0.4-0.2-0.8-0.4-1.2-0.6c-0.4-0.3-0.7-0.6-1-0.9s-0.6-0.7-0.8-1.1
		s-0.5-0.8-0.6-1.3l0,0c-0.2-0.5-0.3-1-0.4-1.5l0,0c-0.1-0.5-0.1-1.1-0.1-1.7c0-0.6,0-1.2,0.1-1.7c0.1-0.6,0.2-1.1,0.4-1.6
		c0.2-0.5,0.4-0.9,0.6-1.3c0.2-0.4,0.6-0.8,0.9-1.1c0.3-0.3,0.7-0.6,1.1-0.9l0,0C178.9,196.6,179.3,196.4,179.7,196.3L179.7,196.3z
		 M184.6,205.2c0.1-0.5,0.2-1.1,0.2-1.7c0-0.3,0-0.6,0-0.8c0-0.3,0-0.5-0.1-0.8c0-0.2-0.1-0.5-0.2-0.7c-0.1-0.2-0.2-0.5-0.3-0.6l0,0
		c-0.1-0.2-0.2-0.4-0.3-0.5s-0.2-0.3-0.4-0.4l0,0c-0.1-0.1-0.3-0.2-0.5-0.2s-0.4-0.1-0.6-0.1s-0.3,0-0.5,0c-0.1,0-0.3,0.1-0.4,0.1
		c-0.1,0.1-0.2,0.2-0.4,0.3c-0.1,0.1-0.2,0.2-0.3,0.3l0,0c-0.1,0.1-0.2,0.3-0.3,0.5c-0.1,0.1-0.1,0.3-0.2,0.5l0,0
		c0,0.2-0.1,0.4-0.2,0.6c0,0.2-0.1,0.4-0.1,0.6c0,0.2,0,0.4,0,0.6l0,0c0,0.2,0,0.4,0,0.6c0,0.3,0,0.6,0,0.9s0.1,0.6,0.1,0.8l0,0
		c0,0.3,0.1,0.5,0.2,0.7c0.1,0.2,0.2,0.4,0.3,0.6l0,0c0.1,0.2,0.2,0.4,0.4,0.5s0.3,0.3,0.4,0.4l0,0c0.1,0.1,0.3,0.2,0.5,0.2l0,0
		c0.2,0,0.3,0.1,0.5,0.1s0.4,0,0.5-0.1c0.1,0,0.3-0.1,0.5-0.2l0,0c0.1-0.1,0.3-0.2,0.4-0.4c0.1-0.1,0.2-0.3,0.3-0.5l0,0
		c0.1-0.2,0.2-0.4,0.3-0.6C184.5,205.7,184.5,205.4,184.6,205.2z M195.3,196.3L195.3,196.3c0.9-0.4,1.8-0.5,2.8-0.5l0,0
		c0.5,0,1,0,1.5,0.1c0.5,0.1,0.9,0.2,1.3,0.4l0,0c0.4,0.2,0.8,0.4,1.1,0.7c0.4,0.3,0.7,0.6,1,0.9c0.3,0.3,0.6,0.7,0.8,1.1
		c0.2,0.4,0.4,0.8,0.6,1.3l0,0c0.1,0.5,0.3,1,0.4,1.5c0.1,0.5,0.1,1.1,0.1,1.6c0,0.6,0,1.1-0.1,1.6c0,0.5-0.2,1-0.3,1.4l0,0
		c-0.1,0.4-0.3,0.8-0.5,1.2c-0.2,0.4-0.4,0.7-0.6,1l0,0c-0.2,0.3-0.5,0.6-0.7,0.8c-0.3,0.3-0.6,0.5-0.9,0.7l0,0
		c-0.3,0.2-0.6,0.4-0.9,0.5s-0.6,0.3-1,0.4l0,0c-0.3,0.1-0.6,0.1-1,0.2c-0.3,0-0.7,0-1,0l0,0c-0.5,0-1,0-1.4-0.1
		c-0.5-0.1-0.9-0.2-1.3-0.4l0,0c-0.4-0.2-0.8-0.4-1.2-0.6c-0.4-0.3-0.7-0.6-1-0.9s-0.6-0.7-0.8-1.1c-0.2-0.4-0.5-0.8-0.6-1.3l0,0
		c-0.2-0.5-0.3-1-0.4-1.5l0,0c-0.1-0.5-0.1-1.1-0.1-1.7c0-0.6,0-1.2,0.1-1.7c0.1-0.6,0.2-1.1,0.4-1.6c0.2-0.5,0.4-0.9,0.6-1.3
		c0.2-0.4,0.6-0.8,0.9-1.1c0.3-0.3,0.7-0.6,1.1-0.9l0,0C194.5,196.6,194.9,196.4,195.3,196.3L195.3,196.3z M200.2,205.2
		c0.1-0.5,0.2-1.1,0.2-1.7c0-0.3,0-0.6,0-0.8c0-0.3,0-0.5-0.1-0.8c0-0.2-0.1-0.5-0.2-0.7c-0.1-0.2-0.2-0.5-0.3-0.6l0,0
		c-0.1-0.2-0.2-0.4-0.3-0.5s-0.2-0.3-0.4-0.4l0,0c-0.1-0.1-0.3-0.2-0.5-0.2c-0.2,0-0.4-0.1-0.6-0.1s-0.3,0-0.5,0
		c-0.1,0-0.3,0.1-0.4,0.1c-0.1,0.1-0.2,0.2-0.4,0.3c-0.1,0.1-0.2,0.2-0.3,0.3l0,0c-0.1,0.1-0.2,0.3-0.3,0.5
		c-0.1,0.1-0.1,0.3-0.2,0.5l0,0c0,0.2-0.1,0.4-0.2,0.6s-0.1,0.4-0.1,0.6c0,0.2,0,0.4,0,0.6l0,0c0,0.2,0,0.4,0,0.6c0,0.3,0,0.6,0,0.9
		c0,0.3,0.1,0.6,0.1,0.8l0,0c0,0.3,0.1,0.5,0.2,0.7c0.1,0.2,0.2,0.4,0.3,0.6l0,0c0.1,0.2,0.2,0.4,0.4,0.5c0.1,0.1,0.3,0.3,0.4,0.4
		l0,0c0.1,0.1,0.3,0.2,0.5,0.2l0,0c0.2,0,0.3,0.1,0.5,0.1s0.4,0,0.5-0.1c0.1,0,0.3-0.1,0.5-0.2l0,0c0.1-0.1,0.3-0.2,0.4-0.4
		s0.2-0.3,0.3-0.5l0,0c0.1-0.2,0.2-0.4,0.3-0.6C200.1,205.7,200.2,205.4,200.2,205.2z M216.3,189.8h3.7h0.4v0.4v16.3
		c0,0.3,0,0.6,0,0.7c0,0.2,0,0.5,0,0.7l0,0c0,0.2,0,0.5,0,0.7s0,0.5,0,0.7l0,0c0,0.4,0,0.8,0,1.2v0.4h-0.4h-3.3h-0.4l0-0.4l-0.1-1
		c-0.1,0.2-0.3,0.3-0.5,0.5l0,0c-0.2,0.2-0.5,0.4-0.7,0.5c-0.2,0.1-0.5,0.3-0.8,0.4c-0.3,0.1-0.6,0.2-0.9,0.2
		c-0.3,0-0.6,0.1-0.9,0.1l0,0c-0.4,0-0.8,0-1.2-0.1c-0.4-0.1-0.8-0.2-1.1-0.4l0,0c-0.4-0.2-0.7-0.4-1-0.7c-0.3-0.3-0.6-0.6-0.9-0.9
		l0,0c-0.3-0.3-0.5-0.7-0.7-1.1c-0.2-0.4-0.4-0.8-0.5-1.3l0,0c-0.1-0.5-0.2-0.9-0.3-1.5c-0.1-0.5-0.1-1-0.1-1.6l0,0
		c0-0.6,0-1.2,0.1-1.7c0.1-0.6,0.2-1.1,0.4-1.6l0,0c0.1-0.5,0.3-0.9,0.6-1.3c0.2-0.4,0.5-0.8,0.7-1.1l0,0c0.3-0.3,0.6-0.6,0.9-0.9
		c0.3-0.3,0.7-0.5,1.1-0.6l0,0c0.4-0.2,0.7-0.3,1.1-0.4c0.4-0.1,0.8-0.1,1.2-0.1l0,0c0.3,0,0.6,0,0.8,0c0.3,0,0.5,0.1,0.8,0.2l0,0
		c0.2,0.1,0.5,0.2,0.7,0.3c0.2,0.1,0.4,0.2,0.6,0.4l0,0c0,0,0.1,0.1,0.1,0.1v-6.6v-0.4L216.3,189.8L216.3,189.8z M215.8,205.5
		c0-0.2,0-0.5,0-0.7l0,0v-2.6l0,0c0-0.2,0-0.5,0-0.6c0-0.2-0.1-0.4-0.1-0.6l0,0c0-0.2-0.1-0.3-0.2-0.5c-0.1-0.1-0.2-0.3-0.3-0.4l0,0
		c-0.1-0.1-0.2-0.2-0.3-0.3c-0.1-0.1-0.2-0.1-0.3-0.2c-0.2-0.1-0.5-0.1-0.7-0.1l0,0c-0.2,0-0.4,0-0.6,0.1c-0.2,0-0.3,0.1-0.5,0.2
		l0,0c-0.1,0.1-0.3,0.2-0.4,0.3c-0.1,0.1-0.2,0.3-0.4,0.5l0,0c-0.1,0.2-0.2,0.4-0.3,0.6c-0.1,0.2-0.1,0.5-0.2,0.7l0,0
		c0,0.2-0.1,0.5-0.1,0.8s0,0.6,0,0.9c0,0.4,0,0.8,0.1,1.1c0,0.4,0.1,0.7,0.2,1l0,0c0.1,0.3,0.2,0.6,0.4,0.7c0.1,0.2,0.3,0.4,0.5,0.6
		l0,0c0.2,0.1,0.4,0.3,0.6,0.3l0,0c0.2,0.1,0.5,0.1,0.7,0.1l0,0c0.1,0,0.2,0,0.4,0c0.1,0,0.2,0,0.4-0.1l0,0c0.1,0,0.2-0.1,0.4-0.2
		c0.1-0.1,0.2-0.1,0.3-0.3l0,0c0.1-0.1,0.2-0.2,0.3-0.3c0.1-0.1,0.2-0.3,0.2-0.5l0,0C215.7,205.9,215.8,205.7,215.8,205.5
		L215.8,205.5z"/>
	<path class="st3" d="M261.3,309.1c0-3.6-0.3-7.5,3.3-10c4.8-3.3,12.5-0.6,12.5,5.9c0,2.8,0.3,5-0.7,7.4c-0.3,0.8-0.9,1.8-1.4,2.3
		c-2.4,2.4-6.3,3.1-9.3,1.6c-0.8-0.4-1.7-0.9-2.3-1.7C262.3,313.4,261.3,311.6,261.3,309.1L261.3,309.1z M277.1,293.9
		c-0.5-0.3-0.7-0.7-1.3-1.1c-0.6-0.4-1-0.6-1.7-0.9c-3.4-1.6-8.4-1-11.7,0.4c-4.9,2-8.1,7.5-8.1,13.3c0,3.7-0.2,6.4,1.2,9.9
		c3.4,8,12.7,10.3,20,7.4c0.9-0.4,1.6-0.7,2.3-1.2c1.6-1.1,1.8-1.4,2.9-2.6c0.3-0.3,0.5-0.6,0.7-1c1.6-2.3,2.6-5.3,2.6-8.4v-30.1
		h-6.9V293.9L277.1,293.9z"/>
	<path class="st3" d="M203.2,317.3c-1.2,0-2.4-0.3-3.4-0.7c-2.8-1.1-4.7-4.3-4.7-7.5c0-3.4-0.3-6.5,2.2-9c5.1-5.1,13.9-2,13.9,6
		c0,3,0,6.3-2.1,8.5c-0.7,0.7-1.4,1.4-2.3,1.8C205.8,316.8,204.4,317.3,203.2,317.3L203.2,317.3z M188.2,305.4c0,5-0.2,8,2.4,12.3
		c3.7,6,12.7,7.8,19,5c0.9-0.4,1.7-0.8,2.4-1.3c0.4-0.3,0.7-0.5,1.1-0.8c1.7-1.5,3.1-3.3,3.9-5.6c1.7-4.7,1.7-13.1-1.1-17.3
		c-0.6-1-1.6-2.3-2.4-3c-0.4-0.3-0.5-0.5-1-0.8c-3.8-2.6-6-2.8-10.6-2.8c-3.6,0-7.4,1.8-9.8,4.2
		C189.6,297.7,188.1,301.8,188.2,305.4L188.2,305.4z"/>
	<path class="st3" d="M236,317.3c-3.3,0-6.2-1.9-7.4-4.8c-1-2.4-0.7-4-0.7-6.6c0-10.8,16-11.1,16,0.3c0,2.2,0.1,3.9-0.6,5.9
		c-0.3,0.9-1,2.1-1.5,2.6C240.3,316.4,238.4,317.4,236,317.3L236,317.3z M221,305.4v3.9c0,8.3,6.1,14.7,14.7,14.7
		c2.7,0,4.8-0.4,6.8-1.3c1.4-0.6,2.3-1.1,3.5-2.2c4.5-4,5-8.6,5-14.4c0-3.6-0.9-6.9-2.9-9.7c-1.4-1.9-2.9-3-5-4.1
		c-3.9-1.9-10.1-1.9-14-0.1c-3.3,1.5-5.6,3.9-6.9,7.2C221.5,301.1,220.9,303.3,221,305.4L221,305.4z"/>
	<path class="st3" d="M162.5,284.7V323c0,0.3,0.1,0.4,0.4,0.4h6.4c0.3,0,0.4-0.1,0.4-0.4v-14.8h14.3v-6.7h-14.3V291h15.8v-6.3
		c0-0.3-0.1-0.4-0.4-0.4h-22.2C162.6,284.3,162.5,284.4,162.5,284.7z"/>
	<path class="st3" d="M38.7,303.5c0,5,0.1,7,2.4,11.4c0.3,0.5,0.6,1,0.9,1.4c0.6,1,1.3,1.7,2.1,2.4c1.8,1.8,2.8,2.5,5.2,3.8
		c5.1,2.6,12.8,2.3,17.8-0.4c1.1-0.6,2-1.1,2.9-1.9c0.4-0.3,1.8-1.4,1.8-2v-15.7H56.6v3h12.1v11.6c0,0.6-1.4,1.4-1.8,1.7
		c-0.8,0.5-1.5,0.9-2.4,1.2c-6.3,2.3-13.5,1.3-18.3-3.4c-2.2-2.2-4.5-6.3-4.5-10.6c0-3.2,0.1-5.9,1.7-8.6l3.4-4.4
		c4.5-3.6,7.1-4.5,13.1-4.5c1.6,0,3.2,0.2,4.5,0.6l2.8,1c0.3,0.1,0.6,0.3,0.9,0.5v-3.4c-1.3-0.3-1.1-0.6-4.3-1.1
		c-4.3-0.7-9.2-0.4-13.1,1.2c-1.9,0.8-4.4,2.2-5.8,3.7c-1,1.1-1,0.8-2.3,2.4c-0.4,0.5-0.6,0.8-1,1.4c-0.4,0.6-0.6,0.9-0.9,1.5
		C39.6,298.1,38.7,301.5,38.7,303.5L38.7,303.5z"/>
	<path class="st3" d="M93.6,305.2c0,3.9-0.3,6.5,1.4,9.9c0.6,1.2,2,3.2,3,4.1c3.5,3.1,7.4,4.9,12.5,3.9c0.9-0.2,1.5-0.5,2-0.6v-3
		c-3.2,0.7-4.9,1.7-9-0.1c-0.7-0.3-1.1-0.6-1.8-1c-1-0.7-2.1-1.7-2.8-2.7c-2.7-3.6-2.3-6.2-2.3-10.5c0-1.4,0.7-3.2,1.1-4.2
		c1.5-3.3,5.7-6.4,9.7-6.4c3.4,0,5.6,0.6,8.1,2.8c2.5,2.1,4,5.1,4,8.5v17.6h3v-17.7c0-2-0.6-4.2-1.3-5.6c-1.2-2.4-1.1-2.1-2.5-3.7
		c-2.2-2.7-6.6-4.8-10.1-4.8h-1.3C100.2,291.5,93.5,298.6,93.6,305.2L93.6,305.2z"/>
	<path class="st3" d="M124.6,308.6c0.4-0.3,3.1-3.7,3.6-4.3l3.7-4.1c3.4-3.4,5.7-5.7,11-5.7c2.8,0,5.6,1.5,7.5,3.4l0.1,0.1
		c3.4,3.6,3.4,6.1,3.4,10.8c0,10.9-14.3,15.9-20.9,6.5c-0.5-0.7-1.4-2.3-1.5-3.4c-0.4,0.1-0.4,0.3-0.6,0.6c-0.2,0.2-0.3,0.4-0.5,0.6
		c-0.1,0.1-1,1.2-1,1.2c0,1.9,2.8,5.1,4.6,6.3c10.4,7,23-0.8,23-12.1v-2.5c0-4.4-1.9-7.8-4.1-10c-1.3-1.3-2.3-2.2-4-3
		c-4.5-2.3-10-1.9-14.2,1l-1.9,1.4c-1.6,1.2-2.9,2.7-4.3,4.1c-0.2,0.3-0.2,0.3-0.5,0.6c-0.2,0.3-0.3,0.3-0.6,0.6
		c-0.3,0.4-0.6,0.8-1,1.2C123.9,304.7,124.6,304.3,124.6,308.6z"/>
	<path class="st3" d="M43.8,304.5v1c0,7.5,6.2,13.8,13.6,13.8c2.5,0,5.5-0.5,7.6-1.5c0.4-0.2,1.7-0.9,1.7-1.4v-8.7h-10v3h7.2v4.4
		c-2.3,0.6-2.8,1.1-6.3,1.1c-6.1,0-10.8-4.8-10.8-10.9v-1.1c0-3.2,1.9-6.1,3.7-7.5c3.8-3.2,8.7-3.7,13.6-2.5
		c0.7,0.2,1.6,0.5,2.2,0.8c0.7,0.4,1.2,0.8,1.8,1.2v-3.7c-0.6-0.1-1.3-0.6-2-0.8c-5.2-1.8-11.1-1.7-15.8,1.1l-2.1,1.6
		C46,296.6,43.7,300,43.8,304.5L43.8,304.5z"/>
	<path class="st3" d="M124.6,316.8c0.2-0.1,6-7.4,7.4-9c1.6-1.7,3-3.5,4.7-5.2c2.3-2.3,4.9-4.1,8.5-2.4c3.1,1.5,3.7,4.1,3.7,7.7
		c0,2.4-0.5,3.6-1.6,5c-1.2,1.6-3.1,2.2-5.2,2.2c-3.4,0-6.4-4.7-6.4-8.2c-0.5,0.3-1.9,2.5-2.5,2.9c0.5,1,0.6,3.1,2.9,5.5
		c1.4,1.4,3.5,2.8,5.8,2.8c1.9,0,3,0,4.7-0.9c2.8-1.4,5.3-4.6,5.3-7.9c0-4.5,0.5-6.8-2.9-10.2c-1.3-1.3-3.8-2.7-6.4-2.7
		c-2.6,0-5.2,1.7-6.6,2.9c-1.6,1.4-5.2,5.5-6.8,7.3c-0.6,0.7-4.1,4.8-4.3,5.3C124.3,312.7,124.5,315.7,124.6,316.8L124.6,316.8z"/>
	<path class="st3" d="M98.6,306c0,3.6-0.2,6.4,2.7,9.3c2.6,2.6,6,3.6,9.5,2.6c1.1-0.3,1.3-0.6,1.7-0.8v-3.3
		c-5.1,3.4-10.9,0.1-10.9-4.8v-3c0-5.1,6.5-8.8,11.1-4.3c1.1,1.1,1.8,2.7,1.8,4.9v16.8h3v-16.8c0-7.3-6.7-11.9-13.3-9.1
		c-0.9,0.4-2.1,1.2-2.8,1.9c-0.2,0.2-0.3,0.4-0.5,0.6C99.5,301.7,98.6,303.5,98.6,306L98.6,306z"/>
	<path class="st3" d="M75,305.7v17.7h3v-17.7c0-4.1,2.4-8.5,6.2-10.1c3-1.2,6.6-1.6,9.7-0.2c0.4,0.2,0.6,0.4,1.1,0.5
		c0.2-0.7,1.7-1.7,1.9-2.4c-0.2,0-1.6-0.8-2.9-1.3c-1.8-0.6-3.2-0.6-5.2-0.6c-4.4,0-8.9,2.5-11.3,6.1C76,299.9,75,302.7,75,305.7
		L75,305.7z"/>
	<path class="st3" d="M80,306.9V323c0,0.6,1.2,0.4,3,0.4v-16.7c0-4.9,3.2-7.7,8-6.9c0.5,0.1,0.9,0.3,1.4,0.4
		c0.2-0.5,0.4-0.8,0.6-1.3c0.2-0.4,0.6-1,0.7-1.3c-0.4-0.1-0.6-0.2-0.9-0.4c-3.5-1.3-7.7-0.1-10.2,2.4C80.8,301.4,80,304.1,80,306.9
		L80,306.9z"/>
	<path class="st3" d="M127.6,297.4c0.5-0.3,1.4-1.8,2.7-2.8c0.2-0.1,0.4-0.2,0.4-0.5v-15.4h-3V297.4z"/>
	<path class="st3" d="M132.6,293.1c0.8-0.4,1.4-1.1,2.3-1.6c0.3-0.2,0.7-0.3,0.7-0.7v-12.1h-3V293.1z"/>
</g>
</svg>
